G04 DipTrace 3.3.1.3*
G04 REV0_DieselTach_Filter_MSP.gbl*
%MOIN*%
G04 #@! TF.FileFunction,Copper,L2,Bot*
G04 #@! TF.Part,Single*
G04 #@! TA.AperFunction,Conductor*
%ADD13C,0.012126*%
%ADD14C,0.0121*%
G04 #@! TA.AperFunction,ComponentPad*
%ADD23R,0.066929X0.066929*%
%ADD24C,0.066929*%
G04 #@! TA.AperFunction,ViaPad*
%ADD39C,0.04*%
%FSLAX26Y26*%
G04*
G70*
G90*
G75*
G01*
G04 Bottom*
%LPD*%
X1293063Y1185935D2*
D13*
Y1056589D1*
X1272945Y1036471D1*
X1145701D1*
X1125583Y1056589D1*
Y1213569D1*
X1105465Y1233687D1*
X1021602D1*
X1001484Y1253805D1*
Y1356380D1*
X816591Y2354754D2*
X981199Y2519362D1*
Y2568701D1*
X919437Y2110187D2*
X1047729Y1981895D1*
Y1845282D1*
X942874Y1473880D2*
X605485D1*
X568729Y1510636D1*
X1001484Y1356380D2*
X942874Y1414990D1*
Y1473880D1*
X1068414Y1356380D2*
Y1487816D1*
X1048295Y1507935D1*
X943630D1*
X801614Y1649951D1*
X691189Y1022530D2*
X747441D1*
X767559Y1042648D1*
Y1070521D1*
X869666Y1172628D1*
X907748D1*
X1126843Y1430412D2*
Y1276380D1*
X907748Y1172628D2*
X1091528D1*
X1126843Y1276380D2*
X1160898Y1242325D1*
Y1172628D1*
X649949Y2056201D2*
X893699D1*
X921457Y2028443D1*
Y2037006D1*
Y1930243D1*
X879547Y1888333D1*
Y1717456D1*
X955591Y1641412D1*
X1218536Y1282443D2*
Y1631364D1*
X1199949Y1649951D1*
X1137449D1*
X1035540Y1751860D1*
Y1777171D1*
X1224622Y2165620D2*
Y1669028D1*
X1252591Y1641059D1*
Y1099818D1*
X1223299Y1070526D1*
X913603Y1755242D2*
X969588Y1811227D1*
X1069595D1*
Y1767805D1*
X1168372Y1669028D1*
X1224622D1*
X795669Y1936234D2*
Y1832451D1*
X465898Y1842447D2*
Y2212451D1*
X1165658D1*
X1185776Y2192333D1*
Y1841723D1*
X1187449Y1712451D2*
Y1718701D1*
X1143699Y1762451D1*
Y2139902D1*
X1106012Y2177589D1*
X655394D1*
X612449Y2018701D2*
D14*
Y2134644D1*
X655394Y2177589D1*
X1168699Y1612451D2*
X1156199D1*
X1143699Y1599951D1*
X931199D1*
X756199Y1774951D1*
X762449D1*
D39*
X612449Y2018701D3*
X1168699Y1612451D3*
X762449Y1774951D3*
X568729Y1510636D3*
X816591Y2354754D3*
X1047729Y1845282D3*
X1293063Y1185935D3*
X942874Y1473880D3*
X1001484Y1356380D3*
X919437Y2110187D3*
X955591Y1641412D3*
X921457Y2037006D3*
X649949Y2056201D3*
X801614Y1649951D3*
X1068414Y1356380D3*
X907748Y1172628D3*
X1091528D3*
X1160898D3*
X1126843Y1430412D3*
Y1276380D3*
X691189Y1022530D3*
X1035540Y1777171D3*
X1218536Y1282443D3*
X1223299Y1070526D3*
X1224622Y2165620D3*
X913603Y1755242D3*
X795669Y1832451D3*
Y1936234D3*
X1185776Y1841723D3*
X465898Y1842447D3*
Y2212451D3*
X655394Y2177589D3*
X1187449Y1712451D3*
D23*
X987449Y812451D3*
D24*
X787449D3*
D23*
X781199Y2568701D3*
D24*
X881199D3*
X981199D3*
M02*
