G04 DipTrace 3.3.1.3*
G04 REV0_DieselTach_Filter_MSP.gtl*
%MOIN*%
G04 #@! TF.FileFunction,Copper,L1,Top*
G04 #@! TF.Part,Single*
%AMOUTLINE0*
4,1,36,
0.015265,0.002692,
0.014566,0.005302,
0.013424,0.007751,
0.011874,0.009963,
0.009963,0.011874,
0.007751,0.013424,
0.005302,0.014566,
0.002692,0.015265,
0.0,0.0155,
-0.002692,0.015265,
-0.005302,0.014566,
-0.007751,0.013424,
-0.009963,0.011874,
-0.011874,0.009963,
-0.013424,0.007751,
-0.014566,0.005302,
-0.015265,0.002692,
-0.0155,0.0,
-0.015265,-0.002692,
-0.014566,-0.005302,
-0.013424,-0.007751,
-0.011874,-0.009963,
-0.009963,-0.011874,
-0.007751,-0.013424,
-0.005302,-0.014566,
-0.002692,-0.015265,
0.0,-0.0155,
0.002692,-0.015265,
0.005302,-0.014566,
0.007751,-0.013424,
0.009963,-0.011874,
0.011874,-0.009963,
0.013424,-0.007751,
0.014566,-0.005302,
0.015265,-0.002692,
0.0155,0.0,
0.015265,0.002692,
0*%
G04 #@! TA.AperFunction,Conductor*
%ADD13C,0.012126*%
%ADD14C,0.0121*%
%ADD15R,0.043307X0.03937*%
%ADD16R,0.03937X0.043307*%
%ADD17R,0.070866X0.062992*%
%ADD18R,0.066142X0.059843*%
%ADD19R,0.059843X0.066142*%
%ADD21R,0.025591X0.041339*%
%ADD22R,0.066929X0.098425*%
G04 #@! TA.AperFunction,ComponentPad*
%ADD23R,0.066929X0.066929*%
%ADD24C,0.066929*%
%ADD26R,0.019685X0.031496*%
%ADD27R,0.106299X0.062992*%
%ADD28R,0.051181X0.059055*%
%ADD29R,0.059055X0.051181*%
%ADD33R,0.047244X0.023622*%
%ADD34R,0.023622X0.047244*%
%ADD36R,0.084646X0.037402*%
%ADD37R,0.084646X0.127953*%
%ADD38R,0.015748X0.070866*%
G04 #@! TA.AperFunction,ViaPad*
%ADD39C,0.04*%
%ADD85OUTLINE0*%
%FSLAX26Y26*%
G04*
G70*
G90*
G75*
G01*
G04 Top*
%LPD*%
X568729Y1510636D2*
D13*
Y1559300D1*
X528497D1*
X1087449Y2137451D2*
X1021189D1*
Y2123130D1*
X987449D1*
X1209950Y1430413D2*
Y1468093D1*
X983020D1*
Y1424951D1*
X637449Y1285630D2*
X682359D1*
X700254Y1267735D1*
X731197D1*
X856200D1*
X1001485Y1308700D2*
X1001484Y1356380D1*
X731199Y1378591D2*
X731197Y1267735D1*
X499949Y1338681D2*
X637449D1*
Y1285630D1*
X533020Y1437451D2*
X497311D1*
Y1338681D1*
X499949D1*
X528497Y1559300D2*
X533020D1*
Y1437451D1*
X877559Y1649951D2*
Y1697077D1*
X613322D1*
X548618D1*
X528497Y1676956D1*
Y1559300D1*
X1017606Y1691054D2*
X941654D1*
X921536Y1670936D1*
Y1649951D1*
X877559D1*
X1074949Y1778297D2*
Y1711176D1*
X1054827Y1691054D1*
X1017606D1*
X1047729Y1845282D2*
X1054949D1*
X1074949Y1825282D1*
Y1778297D1*
X816591Y2354754D2*
X564319D1*
Y2324951D1*
X849949Y2110187D2*
Y2155739D1*
X822654Y2183034D1*
Y2348691D1*
X816591Y2354754D1*
X919437Y2110187D2*
X849949D1*
X987449Y2123130D2*
X953492D1*
Y2110187D1*
X919437D1*
X983020Y1424951D2*
X942874D1*
Y1473880D1*
X1293063Y1185935D2*
X1296200Y1182798D1*
Y1132352D1*
X648975Y1851200D2*
D14*
Y1848976D1*
X613322Y1813323D1*
Y1697077D1*
X974949Y1006201D2*
D13*
X1103009D1*
X1123128Y986082D1*
Y931201D1*
X639270Y937451D2*
Y764927D1*
X659388Y744809D1*
X828288D1*
X848406Y764927D1*
Y1112451D1*
X781199D1*
X787449Y812451D2*
X706199Y893701D1*
Y937451D1*
X987449Y812451D2*
X1056199Y881201D1*
Y931201D1*
X493699Y2099951D2*
Y2143534D1*
X601221D1*
X621339Y2163652D1*
Y2246191D1*
X520071D1*
X499953Y2266309D1*
Y2367825D1*
X520071Y2387943D1*
X544634D1*
X621339Y2163652D2*
Y2143534D1*
X680473D1*
X698425Y2161485D1*
X749950D1*
X801614Y1649951D2*
X743699D1*
X1041878Y1199951D2*
Y1161990D1*
X974949D1*
Y1116437D1*
X1068415Y1308700D2*
Y1260226D1*
X1041878Y1233690D1*
Y1199951D1*
X1068414Y1356380D2*
X1068415Y1308700D1*
X907748Y1172628D2*
Y1334665D1*
X856200D1*
X840235Y1426200D2*
X763831D1*
X752580Y1437451D1*
X659949D1*
Y1492333D1*
X680067Y1512451D1*
X731199D1*
X1160898Y1172628D2*
X1091528D1*
X1172548Y1430413D2*
X1126843Y1430412D1*
Y1276380D2*
X1176485D1*
Y1228700D1*
X659949Y1437451D2*
X599949D1*
X856200Y1334665D2*
Y1370377D1*
X840235Y1386342D1*
Y1426200D1*
X691189Y1022530D2*
X637449D1*
Y1070522D1*
X781199Y1002214D2*
Y1016467D1*
X697252D1*
X691189Y1022530D1*
X974949Y1199951D2*
Y1233692D1*
X950571Y1258070D1*
Y1371092D1*
X970690Y1391211D1*
X1049949D1*
Y1424951D1*
X950571Y1371092D2*
X927284D1*
X907165Y1391211D1*
Y1426200D1*
X1049949Y1424951D2*
X1077666D1*
Y1390435D1*
X1152430D1*
X1172548Y1370317D1*
Y1331987D1*
X649949Y2056201D2*
X527482D1*
X488169Y2016888D1*
X437756Y2067301D1*
Y2143534D1*
X457874Y2163652D1*
X585628D1*
Y2212451D1*
X955591Y1641412D2*
X972878Y1624125D1*
X1017606D1*
X921457Y2037006D2*
X940652Y2056201D1*
X987449D1*
X488169Y2016888D2*
Y1929074D1*
X508288Y1908955D1*
X598975D1*
Y1901200D1*
X1017606Y1624125D2*
X1054827D1*
X1074949Y1604003D1*
Y1549951D1*
X987449Y2056201D2*
Y2046899D1*
X1087449D1*
X1247352Y1430413D2*
Y1389787D1*
X1227232Y1369668D1*
X1218536D1*
Y1282443D1*
X1035540Y1777171D2*
X1017663Y1795048D1*
X960413D1*
X1243415Y1228700D2*
Y1145068D1*
X1223297Y1124951D1*
X1166878D1*
X1218536Y1282443D2*
X1259008D1*
X1279126Y1262325D1*
Y1228700D1*
X1243415D1*
X781199Y2568701D2*
Y2502837D1*
X749949Y2471587D1*
Y2403937D1*
X1175235Y2253700D2*
Y1895898D1*
X1195355Y1875778D1*
X1307075D1*
X1327193Y1855660D1*
Y1494286D1*
X1100539D1*
X1026799D1*
X927059Y1594026D1*
X586020D1*
X565899Y1614147D1*
Y1649851D1*
X1100539Y1494286D2*
X1100540Y1549951D1*
X749949Y2293701D2*
X749950D1*
Y2228415D1*
X906199Y2243701D2*
X941220D1*
X966220Y2268701D1*
X1049949D1*
X1224622Y2165620D2*
X1242165Y2183162D1*
Y2253700D1*
X1223299Y1070526D2*
X1236277Y1057548D1*
X1296200D1*
X913603Y1755242D2*
Y1775048D1*
X893603Y1795048D1*
X861987D1*
X499949Y1181201D2*
X559813D1*
X603563Y1137451D1*
X637449D1*
X1099949Y1124951D2*
Y1046440D1*
X1120068Y1026321D1*
X1172875D1*
X1201414Y997782D1*
X1327193D1*
X1347311Y1017900D1*
Y1311869D1*
X1327193Y1331987D1*
X1347311Y1352105D1*
Y1926230D1*
X1327190Y1946351D1*
X1259414D1*
X1239295Y1966470D1*
Y2124935D1*
X1297992Y2183632D1*
Y2267325D1*
X1277874Y2287443D1*
X1159642D1*
X1139524D1*
Y2182585D1*
X1143827Y2178282D1*
Y1956348D1*
X1087449D1*
X637449Y1137451D2*
Y1218701D1*
X861987Y1832450D2*
X795669Y1832451D1*
X849949Y1999951D2*
Y1936234D1*
X795669D1*
X1159642Y2287443D2*
Y2358817D1*
X1139522Y2378937D1*
X1049949D1*
X849949Y1999951D2*
X784784D1*
X684784Y2099951D1*
X568502D1*
X1087449Y1956348D2*
X1024915D1*
X981312Y1999951D1*
X849949D1*
X1327193Y1331987D2*
X1247352D1*
X637449Y1137451D2*
X671190D1*
X691741Y1158002D1*
X848406D1*
X868524Y1137884D1*
Y1071872D1*
X888642Y1051754D1*
X1022036D1*
X1042154Y1071872D1*
Y1104833D1*
X1062272Y1124951D1*
X1099949D1*
X465898Y1842447D2*
X598975D1*
Y1851200D1*
X465898Y2212451D2*
X518699D1*
X1185776Y1841723D2*
X1177312Y1833258D1*
Y1778297D1*
X655394Y2177589D2*
Y2246191D1*
X635276Y2266309D1*
X545071D1*
X524949Y2286431D1*
Y2324951D1*
X1126130Y1549951D2*
Y1688632D1*
X1149949Y1712451D1*
X1187449D1*
X648975Y1901200D2*
D14*
X648700D1*
X612449Y1937451D1*
Y2018701D1*
X1151721Y1549951D2*
X1149949D1*
Y1587451D1*
X1168699Y1606201D1*
Y1612451D1*
X762449Y1774951D2*
X698975Y1838425D1*
Y1851200D1*
Y1901200D2*
D13*
Y1885817D1*
X715725D1*
Y1879821D1*
X792516D1*
X808414Y1895719D1*
X1131598D1*
X1151721Y1875596D1*
Y1778297D1*
X881199Y2568701D2*
Y2507325D1*
X906199Y2482325D1*
Y2401181D1*
D39*
X612449Y2018701D3*
X1168699Y1612451D3*
X762449Y1774951D3*
X568729Y1510636D3*
X816591Y2354754D3*
X1047729Y1845282D3*
X1293063Y1185935D3*
X942874Y1473880D3*
X1001484Y1356380D3*
X919437Y2110187D3*
X955591Y1641412D3*
X921457Y2037006D3*
X649949Y2056201D3*
X801614Y1649951D3*
X1068414Y1356380D3*
X907748Y1172628D3*
X1091528D3*
X1160898D3*
X1126843Y1430412D3*
Y1276380D3*
X691189Y1022530D3*
X1035540Y1777171D3*
X1218536Y1282443D3*
X1223299Y1070526D3*
X1224622Y2165620D3*
X913603Y1755242D3*
X795669Y1832451D3*
Y1936234D3*
X1185776Y1841723D3*
X465898Y1842447D3*
Y2212451D3*
X655394Y2177589D3*
X1187449Y1712451D3*
D15*
X1068415Y1308700D3*
X1001485D3*
X1049949Y1424951D3*
X983020D3*
D16*
X637449Y1218701D3*
Y1285630D3*
X1017606Y1624125D3*
Y1691054D3*
X987449Y2056201D3*
Y2123130D3*
D17*
X849949Y1999951D3*
Y2110187D3*
D18*
X731199Y1512451D3*
Y1378591D3*
D19*
X743699Y1649951D3*
X877559D3*
D21*
X528497Y1559300D3*
X603300D3*
X565899Y1649851D3*
D22*
X499949Y1181201D3*
Y1338681D3*
X906199Y2243701D3*
Y2401181D3*
D23*
X987449Y812451D3*
D24*
X787449D3*
D23*
X781199Y2568701D3*
D24*
X881199D3*
X981199D3*
D26*
X524949Y2324951D3*
X564319D3*
X544634Y2387943D3*
D15*
X1056199Y931201D3*
X1123128D3*
X706199Y937451D3*
X639270D3*
D27*
X974949Y1006201D3*
Y1116437D3*
X781199Y1112451D3*
Y1002214D3*
D16*
X856200Y1267735D3*
Y1334665D3*
D15*
X974949Y1199951D3*
X1041878D3*
X907165Y1426200D3*
X840235D3*
D16*
X637449Y1137451D3*
Y1070522D3*
D15*
X599949Y1437451D3*
X533020D3*
X1176485Y1228700D3*
X1243415D3*
X1099949Y1124951D3*
X1166878D3*
D28*
X493699Y2099951D3*
X568502D3*
D15*
X1242165Y2253700D3*
X1175235D3*
D29*
X1296200Y1132352D3*
Y1057548D3*
D15*
X518699Y2212451D3*
X585628D3*
D16*
X749950Y2161485D3*
Y2228415D3*
D27*
X749949Y2293701D3*
Y2403937D3*
X1049949Y2268701D3*
Y2378937D3*
D33*
X960413Y1795048D3*
Y1832450D3*
Y1869852D3*
X861987D3*
Y1832450D3*
Y1795048D3*
D34*
X1247352Y1430413D3*
X1209950D3*
X1172548D3*
Y1331987D3*
X1247352D3*
D85*
X598975Y1901200D3*
X648975D3*
X698975D3*
Y1851200D3*
X648975D3*
X598975D3*
D36*
X1087449Y2137451D3*
Y2046899D3*
Y1956348D3*
D37*
X1315796Y2046899D3*
D38*
X1074949Y1549951D3*
X1100540D3*
X1126130D3*
X1151721D3*
X1177312D3*
X1202902D3*
X1228493D3*
X1254083D3*
X1279674D3*
X1305264D3*
Y1778297D3*
X1279674D3*
X1254083D3*
X1228493D3*
X1202902D3*
X1177312D3*
X1151721D3*
X1126130D3*
X1100540D3*
X1074949D3*
M02*
