G04 DipTrace 3.3.1.3*
G04 REV0_DieselTach_Filter_MSP.gts*
%MOIN*%
G04 #@! TF.FileFunction,Soldermask,Top*
G04 #@! TF.Part,Single*
%AMOUTLINE1*
4,1,36,
0.01916,0.003378,
0.018282,0.006654,
0.016849,0.009728,
0.014904,0.012506,
0.012506,0.014904,
0.009728,0.016849,
0.006654,0.018282,
0.003378,0.01916,
0.0,0.019455,
-0.003378,0.01916,
-0.006654,0.018282,
-0.009728,0.016849,
-0.012506,0.014904,
-0.014904,0.012506,
-0.016849,0.009728,
-0.018282,0.006654,
-0.01916,0.003378,
-0.019455,0.0,
-0.01916,-0.003378,
-0.018282,-0.006654,
-0.016849,-0.009728,
-0.014904,-0.012506,
-0.012506,-0.014904,
-0.009728,-0.016849,
-0.006654,-0.018282,
-0.003378,-0.01916,
0.0,-0.019455,
0.003378,-0.01916,
0.006654,-0.018282,
0.009728,-0.016849,
0.012506,-0.014904,
0.014904,-0.012506,
0.016849,-0.009728,
0.018282,-0.006654,
0.01916,-0.003378,
0.019455,0.0,
0.01916,0.003378,
0*%
%ADD41C,0.0374*%
%ADD42C,0.0935*%
%ADD47R,0.023628X0.078746*%
%ADD49R,0.092526X0.135833*%
%ADD51R,0.092526X0.045282*%
%ADD53R,0.031502X0.055124*%
%ADD55R,0.055124X0.031502*%
%ADD57R,0.066935X0.059061*%
%ADD59R,0.059061X0.066935*%
%ADD61R,0.114179X0.070872*%
%ADD63R,0.027565X0.039376*%
%ADD65C,0.074809*%
%ADD67R,0.074809X0.074809*%
%ADD69R,0.074809X0.106305*%
%ADD71R,0.033471X0.049219*%
%ADD73R,0.067723X0.074022*%
%ADD75R,0.074022X0.067723*%
%ADD77R,0.078746X0.070872*%
%ADD79R,0.04725X0.051187*%
%ADD81R,0.051187X0.04725*%
%ADD86OUTLINE1*%
%FSLAX26Y26*%
G04*
G70*
G90*
G75*
G01*
G04 TopMask*
%LPD*%
D81*
X1068415Y1308700D3*
X1001485D3*
X1049949Y1424951D3*
X983020D3*
D79*
X637449Y1218701D3*
Y1285630D3*
X1017606Y1624125D3*
Y1691054D3*
X987449Y2056201D3*
Y2123130D3*
D77*
X849949Y1999951D3*
Y2110187D3*
D75*
X731199Y1512451D3*
Y1378591D3*
D73*
X743699Y1649951D3*
X877559D3*
D71*
X528497Y1559300D3*
X603300D3*
X565899Y1649851D3*
D69*
X499949Y1181201D3*
Y1338681D3*
X906199Y2243701D3*
Y2401181D3*
D67*
X987449Y812451D3*
D65*
X787449D3*
D67*
X781199Y2568701D3*
D65*
X881199D3*
X981199D3*
D63*
X524949Y2324951D3*
X564319D3*
X544634Y2387943D3*
D81*
X1056199Y931201D3*
X1123128D3*
X706199Y937451D3*
X639270D3*
D61*
X974949Y1006201D3*
Y1116437D3*
X781199Y1112451D3*
Y1002214D3*
D79*
X856200Y1267735D3*
Y1334665D3*
D81*
X974949Y1199951D3*
X1041878D3*
X907165Y1426200D3*
X840235D3*
D79*
X637449Y1137451D3*
Y1070522D3*
D81*
X599949Y1437451D3*
X533020D3*
X1176485Y1228700D3*
X1243415D3*
X1099949Y1124951D3*
X1166878D3*
D59*
X493699Y2099951D3*
X568502D3*
D81*
X1242165Y2253700D3*
X1175235D3*
D57*
X1296200Y1132352D3*
Y1057548D3*
D81*
X518699Y2212451D3*
X585628D3*
D79*
X749950Y2161485D3*
Y2228415D3*
D61*
X749949Y2293701D3*
Y2403937D3*
X1049949Y2268701D3*
Y2378937D3*
D55*
X960413Y1795048D3*
Y1832450D3*
Y1869852D3*
X861987D3*
Y1832450D3*
Y1795048D3*
D53*
X1247352Y1430413D3*
X1209950D3*
X1172548D3*
Y1331987D3*
X1247352D3*
D86*
X598975Y1901200D3*
X648975D3*
X698975D3*
Y1851200D3*
X648975D3*
X598975D3*
D41*
X548975Y1876200D3*
X748975Y1916200D3*
Y1836200D3*
D42*
X548975Y1976200D3*
Y1776200D3*
X673975D3*
Y1976200D3*
D51*
X1087449Y2137451D3*
Y2046899D3*
Y1956348D3*
D49*
X1315796Y2046899D3*
D47*
X1074949Y1549951D3*
X1100540D3*
X1126130D3*
X1151721D3*
X1177312D3*
X1202902D3*
X1228493D3*
X1254083D3*
X1279674D3*
X1305264D3*
Y1778297D3*
X1279674D3*
X1254083D3*
X1228493D3*
X1202902D3*
X1177312D3*
X1151721D3*
X1126130D3*
X1100540D3*
X1074949D3*
M02*
