M48
INCH
T01C0.019
T02C0.0374
T03C0.0433
T04C0.0935
%
T01
X+005687Y+015106
X+008016Y+016500
X+007624Y+017750
X+007957Y+018325
X+007957Y+019362
X+009215Y+020370
X+009194Y+021102
X+008166Y+023548
X+006554Y+021776
X+006499Y+020562
X+006124Y+020187
X+004659Y+018424
X+004659Y+022125
X+009136Y+017552
X+009556Y+016414
X+010355Y+017772
X+010477Y+018453
X+011858Y+018417
X+011874Y+017125
X+011687Y+016125
X+011268Y+014304
X+010684Y+013564
X+010015Y+013564
X+009429Y+014739
X+011268Y+012764
X+012185Y+012824
X+012931Y+011859
X+011609Y+011726
X+010915Y+011726
X+012233Y+010705
X+009077Y+011726
X+006912Y+010225
X+012246Y+021656
T02
X+005490Y+018762
X+007490Y+019162
X+007490Y+018362
T03
X+009874Y+008125
X+007874Y+008125
X+007812Y+025687
X+008812Y+025687
X+009812Y+025687
T04
X+005490Y+019762
X+006740Y+019762
X+006740Y+017762
X+005490Y+017762
T00
M30
