G04 DipTrace 3.2.0.1*
G04 TopAssy.gbr*
%MOIN*%
G04 #@! TF.FileFunction,Drawing,Top*
G04 #@! TF.Part,Single*
%ADD10C,0.009843*%
%ADD21C,0.001969*%
%ADD22C,0.003937*%
%ADD56C,0.003088*%
%FSLAX26Y26*%
G04*
G70*
G90*
G75*
G01*
G04 TopAssy*
%LPD*%
X1119000Y395984D2*
D10*
X669000D1*
X1000677Y1770102D2*
D21*
X835323D1*
Y1907898D1*
X1000677D1*
Y1770102D1*
X949500Y1781911D2*
D22*
X886500D1*
Y1896089D1*
X949500D1*
Y1781911D1*
Y1819309D2*
X912097Y1781911D1*
X1284898Y1470677D2*
D21*
Y1305323D1*
X1147102D1*
Y1470677D1*
X1284898D1*
X1273089Y1419963D2*
D22*
Y1356037D1*
X1158911D1*
Y1419963D1*
X1273089D1*
X1235691D2*
X1273089Y1382560D1*
X1098232Y1529118D2*
D21*
Y1822425D1*
X1314768D1*
Y1529118D1*
X1098232D1*
X1110033Y1599013D2*
D22*
Y1752530D1*
X1302967D1*
Y1599013D1*
X1110033D1*
X1160053D2*
X1110033Y1648993D1*
X688000Y2900000D2*
D10*
X1088000D1*
X979936Y367508D2*
D56*
Y387604D1*
X971314D1*
X968440Y386631D1*
X967489Y385681D1*
X966539Y383779D1*
Y380905D1*
X967489Y378982D1*
X968440Y378031D1*
X971314Y377081D1*
X968440Y376108D1*
X967489Y375157D1*
X966539Y373256D1*
Y371333D1*
X967489Y369431D1*
X968440Y368459D1*
X971314Y367508D1*
X979936D1*
Y377081D2*
X971314D1*
X954615Y367508D2*
X956538Y368459D1*
X958440Y370382D1*
X959412Y372283D1*
X960363Y375157D1*
Y379955D1*
X959412Y382807D1*
X958440Y384730D1*
X956538Y386631D1*
X954615Y387604D1*
X950790D1*
X948889Y386631D1*
X946966Y384730D1*
X946015Y382807D1*
X945064Y379955D1*
Y375157D1*
X946015Y372283D1*
X946966Y370382D1*
X948889Y368459D1*
X950790Y367508D1*
X954615D1*
X923568Y387604D2*
X931239Y367508D1*
X938889Y387604D1*
X936015Y380905D2*
X926442D1*
X917392Y377081D2*
X908792D1*
X905918Y376108D1*
X904946Y375157D1*
X903995Y373256D1*
Y371333D1*
X904946Y369431D1*
X905918Y368459D1*
X908792Y367508D1*
X917392D1*
Y387604D1*
X910694Y377081D2*
X903995Y387604D1*
X897819Y367508D2*
Y387604D1*
X891121D1*
X888247Y386631D1*
X886323Y384730D1*
X885373Y382807D1*
X884422Y379955D1*
Y375157D1*
X885373Y372283D1*
X886323Y370382D1*
X888247Y368459D1*
X891121Y367508D1*
X897819D1*
X846381D2*
X858806D1*
Y387604D1*
X846381D1*
X858806Y377081D2*
X851157D1*
X840206Y367508D2*
Y387604D1*
X833507D1*
X830633Y386631D1*
X828710Y384730D1*
X827759Y382807D1*
X826808Y379955D1*
Y375157D1*
X827759Y372283D1*
X828710Y370382D1*
X830633Y368459D1*
X833507Y367508D1*
X840206D1*
X806285Y372283D2*
X807235Y370382D1*
X809159Y368459D1*
X811060Y367508D1*
X814885D1*
X816808Y368459D1*
X818709Y370382D1*
X819682Y372283D1*
X820633Y375157D1*
Y379955D1*
X819682Y382807D1*
X818709Y384730D1*
X816808Y386631D1*
X814885Y387604D1*
X811060D1*
X809159Y386631D1*
X807235Y384730D1*
X806285Y382807D1*
Y379955D1*
X811060D1*
X787684Y367508D2*
X800109D1*
Y387604D1*
X787684D1*
X800109Y377081D2*
X792460D1*
M02*
