G04 DipTrace 3.2.0.1*
G04 TopPaste.gbr*
%MOIN*%
G04 #@! TF.FileFunction,Paste,Top*
G04 #@! TF.Part,Single*
%AMOUTLINE2*
4,1,4,
-0.017654,-0.015685,
-0.017654,0.015685,
0.017654,0.015685,
0.017654,-0.015685,
-0.017654,-0.015685,
0*%
%AMOUTLINE5*
4,1,4,
0.031433,-0.027496,
-0.031433,-0.027496,
-0.031433,0.027496,
0.031433,0.027496,
0.031433,-0.027496,
0*%
%AMOUTLINE8*
4,1,4,
0.029465,0.045213,
0.029465,-0.045213,
-0.029465,-0.045213,
-0.029465,0.045213,
0.029465,0.045213,
0*%
%AMOUTLINE11*
4,1,4,
0.008795,-0.016669,
-0.008795,-0.016669,
-0.008795,0.016669,
0.008795,0.016669,
0.008795,-0.016669,
0*%
%AMOUTLINE14*
4,1,4,
-0.029465,-0.045213,
-0.029465,0.045213,
0.029465,0.045213,
0.029465,-0.045213,
-0.029465,-0.045213,
0*%
%AMOUTLINE17*
4,1,4,
0.025921,-0.029071,
-0.025921,-0.029071,
-0.025921,0.029071,
0.025921,0.029071,
0.025921,-0.029071,
0*%
%AMOUTLINE20*
4,1,4,
0.04915,-0.027496,
-0.04915,-0.027496,
-0.04915,0.027496,
0.04915,0.027496,
0.04915,-0.027496,
0*%
%AMOUTLINE23*
4,1,4,
-0.04915,0.027496,
0.04915,0.027496,
0.04915,-0.027496,
-0.04915,-0.027496,
-0.04915,0.027496,
0*%
%AMOUTLINE26*
4,1,4,
0.015685,-0.017654,
-0.015685,-0.017654,
-0.015685,0.017654,
0.015685,0.017654,
0.015685,-0.017654,
0*%
%AMOUTLINE29*
4,1,4,
0.019622,-0.007811,
-0.019622,-0.007811,
-0.019622,0.007811,
0.019622,0.007811,
0.019622,-0.007811,
0*%
%AMOUTLINE32*
4,1,36,
0.011485,0.0,
0.011311,0.001995,
0.010792,0.003929,
0.009947,0.005743,
0.008798,0.007382,
0.007382,0.008798,
0.005743,0.009947,
0.003929,0.010792,
0.001995,0.011311,
0.0,0.011485,
-0.001995,0.011311,
-0.003929,0.010792,
-0.005743,0.009947,
-0.007382,0.008798,
-0.008798,0.007382,
-0.009947,0.005743,
-0.010792,0.003929,
-0.011311,0.001995,
-0.011485,0.0,
-0.011311,-0.001995,
-0.010792,-0.003929,
-0.009947,-0.005743,
-0.008798,-0.007382,
-0.007382,-0.008798,
-0.005743,-0.009947,
-0.003929,-0.010792,
-0.001995,-0.011311,
0.0,-0.011485,
0.001995,-0.011311,
0.003929,-0.010792,
0.005743,-0.009947,
0.007382,-0.008798,
0.008798,-0.007382,
0.009947,-0.005743,
0.010792,-0.003929,
0.011311,-0.001995,
0.011485,0.0,
0*%
%AMOUTLINE35*
4,1,4,
0.038323,0.014701,
0.038323,-0.014701,
-0.038323,-0.014701,
-0.038323,0.014701,
0.038323,0.014701,
0*%
%AMOUTLINE38*
4,1,4,
0.038323,0.059976,
0.038323,-0.059976,
-0.038323,-0.059976,
-0.038323,0.059976,
0.038323,0.059976,
0*%
%ADD38R,0.011685X0.023496*%
%ADD40R,0.017591X0.052039*%
%ADD42R,0.015622X0.039244*%
%ADD44R,0.035307X0.03137*%
%ADD46R,0.043181X0.051055*%
%ADD52R,0.058142X0.051843*%
%ADD54R,0.03137X0.035307*%
%ADD59OUTLINE2*%
%ADD62OUTLINE5*%
%ADD65OUTLINE8*%
%ADD68OUTLINE11*%
%ADD71OUTLINE14*%
%ADD74OUTLINE17*%
%ADD77OUTLINE20*%
%ADD80OUTLINE23*%
%ADD83OUTLINE26*%
%ADD86OUTLINE29*%
%ADD89OUTLINE32*%
%ADD92OUTLINE35*%
%ADD95OUTLINE38*%
%FSLAX26Y26*%
G04*
G70*
G90*
G75*
G01*
G04 TopPaste*
%LPD*%
D59*
X1075465Y1315000D3*
X1008535D3*
D54*
X1092100Y1167835D3*
Y1234765D3*
X944000Y1256500D3*
Y1189571D3*
X1029700Y1562365D3*
Y1495435D3*
D62*
X856000Y2006882D3*
Y2117118D3*
D65*
X506000Y1187260D3*
Y1344740D3*
D68*
X534598Y1565724D3*
X609402D3*
X572000Y1656276D3*
D71*
X913000Y2250260D3*
Y2407740D3*
D52*
X738000Y1518929D3*
Y1385070D3*
D74*
X750071Y1656000D3*
X883930D3*
D77*
X982000Y1012882D3*
Y1123118D3*
D80*
X788000Y1119118D3*
Y1008882D3*
D77*
X756000Y2299882D3*
Y2410118D3*
D80*
X1056000Y2274882D3*
Y2385118D3*
D54*
X1092100Y929935D3*
Y996865D3*
X678700Y937735D3*
Y1004665D3*
D46*
X871398Y1556200D3*
X946202D3*
D83*
X863000Y1274535D3*
Y1341465D3*
D44*
X1160665Y1088200D3*
X1093735D3*
D54*
X1170100Y1179535D3*
Y1246465D3*
D44*
X976735Y1392400D3*
X1043665D3*
D59*
X606465Y1444000D3*
X539535D3*
D44*
X786265Y1306600D3*
X719335D3*
Y1228600D3*
X786265D3*
X532135Y1072600D3*
X599065D3*
D86*
X967213Y1801598D3*
Y1839000D3*
Y1876402D3*
X868787D3*
Y1839000D3*
Y1801598D3*
D42*
X1253402Y1437213D3*
X1216000D3*
X1178598D3*
Y1338787D3*
X1253402D3*
D40*
X1131500Y1569000D3*
X1181500D3*
X1231500D3*
X1281500D3*
Y1782543D3*
X1231500D3*
X1181500D3*
X1131500D3*
D89*
X606000Y1908000D3*
X656000D3*
X706000D3*
Y1858000D3*
X656000D3*
X606000D3*
D92*
X1093827Y2143551D3*
Y2053000D3*
Y1962449D3*
D95*
X1322173Y2053000D3*
D38*
X980857Y1637804D3*
X1020228D3*
X1000543Y1700796D3*
M02*
